<svg xmlns="http://www.w3.org/2000/svg" xmlns:xlink="http://www.w3.org/1999/xlink" width="1920" height="1080" viewBox="0 0 1920 1080"><defs><style>.a{clip-path:url(#b);}.b{mix-blend-mode:luminosity;isolation:isolate;}.c,.j{fill:#7fb5b3;}.d,.m{fill:none;}.e,.g,.h,.i{fill:#4d4545;}.e{stroke:#ffe4e4;stroke-width:10px;}.f{fill:#ffe4e4;}.h{stroke:#4d4545;}.i{stroke:#707070;}.j{stroke:#7fb5b3;}.k,.l{stroke:none;}.l{fill:#7fb5b3;}</style><clipPath id="b"><rect width="1920" height="1080"/></clipPath></defs><g id="a" class="a"><g class="b" transform="translate(10 -51)"><path class="c" d="M0,0H9V40H0Z" transform="translate(946 656)"/><g transform="translate(835 367)"><g class="d" transform="translate(0 169)"><path class="k" d="M115.5,128a105.625,105.625,0,0,1-23.277-2.6,107.039,107.039,0,0,1-21.681-7.443,112.527,112.527,0,0,1-19.619-11.777,119.772,119.772,0,0,1-17.094-15.6,126.8,126.8,0,0,1-14.1-18.9,132.536,132.536,0,0,1-10.649-21.7,137.133,137.133,0,0,1-6.73-23.977A141.849,141.849,0,0,1,0,.269C0,.178,0,.09,0,0H231c0,.071,0,.141,0,.212V.269a141.844,141.844,0,0,1-2.347,25.742,137.134,137.134,0,0,1-6.73,23.977,132.537,132.537,0,0,1-10.649,21.7,126.8,126.8,0,0,1-14.1,18.9,119.772,119.772,0,0,1-17.094,15.6,112.529,112.529,0,0,1-19.619,11.777,107.041,107.041,0,0,1-21.681,7.443A105.625,105.625,0,0,1,115.5,128Z"/><path class="l" d="M 115.4997711181641 118.0000152587891 C 122.5946960449219 118.0000152587891 129.6836853027344 117.2098617553711 136.5697631835938 115.6515884399414 C 143.2871856689453 114.1313629150391 149.8987274169922 111.8612060546875 156.2206115722656 108.9042053222656 C 162.4489593505859 105.9908218383789 168.4616851806641 102.3808212280273 174.0916137695312 98.17451477050781 C 179.6906890869141 93.9912109375 184.9600830078125 89.18224334716797 189.7534637451172 83.88136291503906 C 194.5631103515625 78.56236267089844 198.9326477050781 72.70474243164062 202.7407379150391 66.47132110595703 C 206.5945739746094 60.16282272338867 209.9060821533203 53.41497802734375 212.5832366943359 46.415283203125 C 215.314697265625 39.27339935302734 217.4131927490234 31.79620742797852 218.8203887939453 24.19159126281738 C 219.6803436279297 19.54388809204102 220.2881927490234 14.81473636627197 220.6396942138672 10.0000524520874 L 10.35660648345947 10.0000171661377 C 10.70760536193848 14.78139877319336 11.31674385070801 19.52808380126953 12.17961502075195 24.19155311584473 C 13.58673095703125 31.79605293273926 15.6851921081543 39.27320861816406 18.4167308807373 46.41524505615234 C 21.09380722045898 53.41490173339844 24.40530776977539 60.16274642944336 28.25915336608887 66.47132110595703 C 32.06715393066406 72.70470428466797 36.43669128417969 78.56228637695312 41.24634552001953 83.88132476806641 C 46.03976821899414 89.18235778808594 51.30911636352539 93.99128723144531 56.90803909301758 98.17451477050781 C 62.53765487670898 102.3806304931641 68.55034637451172 105.9906692504883 74.77880859375 108.9041290283203 C 81.10111236572266 111.8613204956055 87.71265411376953 114.131477355957 94.42973327636719 115.6515502929688 C 101.3158493041992 117.2098999023438 108.4048461914062 118.0000152587891 115.4997711181641 118.0000152587891 M 115.4997711181641 128.0000152587891 C 107.6631927490234 128.0000152587891 99.83161163330078 127.1268615722656 92.22254180908203 125.4049377441406 C 84.80696105957031 123.7267837524414 77.51253509521484 121.2226333618164 70.54199981689453 117.9622497558594 C 63.69795989990234 114.7608261108398 57.09707641601562 110.7986297607422 50.92269134521484 106.1854782104492 C 44.80673217773438 101.6159362792969 39.05557632446289 96.36832427978516 33.82907867431641 90.58836364746094 C 28.60250091552734 84.80824279785156 23.85738372802734 78.44801330566406 19.72553825378418 71.68451690673828 C 15.55403804779053 64.85597991943359 11.97123050689697 57.55609130859375 9.0765380859375 49.98751449584961 C 6.128345966339111 42.27897644042969 3.864038467407227 34.21220779418945 2.346538543701172 26.01101493835449 C 0.7894999980926514 17.59597587585449 0 8.935015678405762 0 0.2686690986156464 C 0 0.1782075613737106 7.69230755395256e-05 0.09047679603099823 0.000269230775302276 1.52587890625e-05 L 230.9997253417969 5.37203268322628e-05 C 230.9999542236328 0.07143833488225937 230.9999542236328 0.1410152614116669 231 0.2116691023111343 L 231 0.2686690986156464 C 231 8.935091972351074 230.2104949951172 17.59605407714844 228.6534576416016 26.01101493835449 C 227.1359252929688 34.21205520629883 224.8716125488281 42.27897644042969 221.9234161376953 49.98751449584961 C 219.0286865234375 57.55609130859375 215.4458770751953 64.85597991943359 211.2743530273438 71.68451690673828 C 207.1424560546875 78.44801330566406 202.3973388671875 84.80824279785156 197.1707305908203 90.58836364746094 C 191.9441528320312 96.36836242675781 186.1929626464844 101.6159362792969 180.0769958496094 106.1854782104492 C 173.9025726318359 110.7985534667969 167.3017272949219 114.7608261108398 160.4576110839844 117.9622497558594 C 153.4870758056641 121.2226333618164 146.1926879882812 123.7267074584961 138.7770385742188 125.4049377441406 C 131.1679229736328 127.1268615722656 123.336311340332 128.0000152587891 115.4997711181641 128.0000152587891 Z"/></g><g class="e" transform="translate(24 92)"><circle class="k" cx="91.5" cy="91.5" r="91.5"/><circle class="m" cx="91.5" cy="91.5" r="86.5"/></g><circle class="f" cx="91.5" cy="91.5" r="91.5" transform="translate(24)"/><path class="f" d="M0,0H183V91H0Z" transform="translate(24 92)"/><rect class="g" width="163" height="66" rx="6" transform="translate(34 124)"/><g transform="translate(33.316 40.72)"><g class="h" transform="translate(-0.316 30.28)"><circle class="k" cx="5" cy="5" r="5"/><circle class="m" cx="5" cy="5" r="4.5"/></g><g class="h" transform="translate(-0.316 17.28)"><circle class="k" cx="5" cy="5" r="5"/><circle class="m" cx="5" cy="5" r="4.5"/></g><g class="h" transform="translate(12.684 21.28)"><ellipse class="k" cx="5" cy="4.5" rx="5" ry="4.5"/><ellipse class="m" cx="5" cy="4.5" rx="4.5" ry="4"/></g><g class="h" transform="translate(12.684 8.28)"><ellipse class="k" cx="5" cy="4.5" rx="5" ry="4.5"/><ellipse class="m" cx="5" cy="4.5" rx="4.5" ry="4"/></g><g class="h" transform="translate(25.684 13.28)"><circle class="k" cx="4.5" cy="4.5" r="4.5"/><circle class="m" cx="4.5" cy="4.5" r="4"/></g><g class="h" transform="translate(25.684 0.28)"><circle class="k" cx="4.5" cy="4.5" r="4.5"/><circle class="m" cx="4.5" cy="4.5" r="4"/></g><g class="h" transform="translate(-0.316 43.28)"><ellipse class="k" cx="5" cy="4.5" rx="5" ry="4.5"/><ellipse class="m" cx="5" cy="4.5" rx="4.5" ry="4"/></g><g class="h" transform="translate(12.684 34.28)"><ellipse class="k" cx="5" cy="4.5" rx="5" ry="4.5"/><ellipse class="m" cx="5" cy="4.5" rx="4.5" ry="4"/></g><g class="h" transform="translate(25.684 26.28)"><circle class="k" cx="4.5" cy="4.5" r="4.5"/><circle class="m" cx="4.5" cy="4.5" r="4"/></g><g class="h" transform="translate(-0.316 56.28)"><ellipse class="k" cx="5" cy="4.5" rx="5" ry="4.5"/><ellipse class="m" cx="5" cy="4.5" rx="4.5" ry="4"/></g><g class="h" transform="translate(12.684 47.28)"><ellipse class="k" cx="5" cy="4.5" rx="5" ry="4.5"/><ellipse class="m" cx="5" cy="4.5" rx="4.5" ry="4"/></g><g class="h" transform="translate(25.684 39.28)"><circle class="k" cx="4.5" cy="4.5" r="4.5"/><circle class="m" cx="4.5" cy="4.5" r="4"/></g><g class="h" transform="translate(-0.316 69.28)"><ellipse class="k" cx="5" cy="4.5" rx="5" ry="4.5"/><ellipse class="m" cx="5" cy="4.5" rx="4.5" ry="4"/></g><g class="h" transform="translate(12.684 60.28)"><ellipse class="k" cx="5" cy="4.5" rx="5" ry="4.5"/><ellipse class="m" cx="5" cy="4.5" rx="4.5" ry="4"/></g><g class="h" transform="translate(25.684 52.28)"><circle class="k" cx="4.5" cy="4.5" r="4.5"/><circle class="m" cx="4.5" cy="4.5" r="4"/></g><g class="h" transform="translate(25.684 65.28)"><circle class="k" cx="4.5" cy="4.5" r="4.5"/><circle class="m" cx="4.5" cy="4.5" r="4"/></g><g transform="translate(74.036 78.663) rotate(180)"><g class="h" transform="translate(9.352 39.382) rotate(180)"><circle class="k" cx="4.5" cy="4.5" r="4.5"/><circle class="m" cx="4.5" cy="4.5" r="4"/></g><g class="h" transform="translate(9.352 26.382) rotate(180)"><circle class="k" cx="4.5" cy="4.5" r="4.5"/><circle class="m" cx="4.5" cy="4.5" r="4"/></g><g class="h" transform="translate(22.352 30.382) rotate(180)"><circle class="k" cx="4.5" cy="4.5" r="4.5"/><circle class="m" cx="4.5" cy="4.5" r="4"/></g><g class="h" transform="translate(22.352 17.382) rotate(180)"><circle class="k" cx="4.5" cy="4.5" r="4.5"/><circle class="m" cx="4.5" cy="4.5" r="4"/></g><g class="h" transform="translate(35.352 22.382) rotate(180)"><circle class="k" cx="4.5" cy="4.5" r="4.5"/><circle class="m" cx="4.5" cy="4.5" r="4"/></g><g class="h" transform="translate(35.352 9.382) rotate(180)"><circle class="k" cx="4.5" cy="4.5" r="4.5"/><circle class="m" cx="4.5" cy="4.5" r="4"/></g><g class="h" transform="translate(9.352 52.382) rotate(180)"><circle class="k" cx="4.5" cy="4.5" r="4.5"/><circle class="m" cx="4.5" cy="4.5" r="4"/></g><g class="h" transform="translate(22.352 43.382) rotate(180)"><circle class="k" cx="4.5" cy="4.5" r="4.5"/><circle class="m" cx="4.5" cy="4.5" r="4"/></g><g class="h" transform="translate(35.352 35.382) rotate(180)"><circle class="k" cx="4.5" cy="4.5" r="4.5"/><circle class="m" cx="4.5" cy="4.5" r="4"/></g><g class="h" transform="translate(9.352 65.382) rotate(180)"><circle class="k" cx="4.5" cy="4.5" r="4.5"/><circle class="m" cx="4.5" cy="4.5" r="4"/></g><g class="h" transform="translate(22.352 56.382) rotate(180)"><circle class="k" cx="4.5" cy="4.5" r="4.5"/><circle class="m" cx="4.5" cy="4.5" r="4"/></g><g class="h" transform="translate(35.352 48.382) rotate(180)"><ellipse class="k" cx="4.5" cy="5" rx="4.5" ry="5"/><ellipse class="m" cx="4.5" cy="5" rx="4" ry="4.5"/></g><g class="h" transform="translate(9.352 78.382) rotate(180)"><circle class="k" cx="4.5" cy="4.5" r="4.5"/><circle class="m" cx="4.5" cy="4.5" r="4"/></g><g class="h" transform="translate(22.352 69.382) rotate(180)"><circle class="k" cx="4.5" cy="4.5" r="4.5"/><circle class="m" cx="4.5" cy="4.5" r="4"/></g><g class="h" transform="translate(35.352 61.382) rotate(180)"><ellipse class="k" cx="4.5" cy="5" rx="4.5" ry="5"/><ellipse class="m" cx="4.5" cy="5" rx="4" ry="4.5"/></g><g class="h" transform="translate(35.352 74.382) rotate(180)"><ellipse class="k" cx="4.5" cy="5" rx="4.5" ry="5"/><ellipse class="m" cx="4.5" cy="5" rx="4" ry="4.5"/></g></g></g><g transform="translate(124.01 40.72)"><g transform="translate(38.869)"><g class="h" transform="translate(26.122 30.28)"><ellipse class="k" cx="4.5" cy="5" rx="4.5" ry="5"/><ellipse class="m" cx="4.5" cy="5" rx="4" ry="4.5"/></g><g class="h" transform="translate(26.122 17.28)"><ellipse class="k" cx="4.5" cy="5" rx="4.5" ry="5"/><ellipse class="m" cx="4.5" cy="5" rx="4" ry="4.5"/></g><g class="h" transform="translate(13.122 21.28)"><circle class="k" cx="4.5" cy="4.5" r="4.5"/><circle class="m" cx="4.5" cy="4.5" r="4"/></g><g class="h" transform="translate(13.122 8.28)"><circle class="k" cx="4.5" cy="4.5" r="4.5"/><circle class="m" cx="4.5" cy="4.5" r="4"/></g><g class="h" transform="translate(0.122 13.28)"><circle class="k" cx="4.5" cy="4.5" r="4.5"/><circle class="m" cx="4.5" cy="4.5" r="4"/></g><g class="h" transform="translate(0.122 0.28)"><circle class="k" cx="4.5" cy="4.5" r="4.5"/><circle class="m" cx="4.5" cy="4.5" r="4"/></g><g class="h" transform="translate(26.122 43.28)"><circle class="k" cx="4.5" cy="4.5" r="4.5"/><circle class="m" cx="4.5" cy="4.5" r="4"/></g><g class="h" transform="translate(13.122 34.28)"><circle class="k" cx="4.5" cy="4.5" r="4.5"/><circle class="m" cx="4.5" cy="4.5" r="4"/></g><g class="h" transform="translate(0.122 26.28)"><circle class="k" cx="4.5" cy="4.5" r="4.5"/><circle class="m" cx="4.5" cy="4.5" r="4"/></g><g class="h" transform="translate(26.122 56.28)"><circle class="k" cx="4.5" cy="4.5" r="4.5"/><circle class="m" cx="4.5" cy="4.5" r="4"/></g><g class="h" transform="translate(13.122 47.28)"><circle class="k" cx="4.5" cy="4.5" r="4.5"/><circle class="m" cx="4.5" cy="4.5" r="4"/></g><g class="h" transform="translate(0.122 39.28)"><circle class="k" cx="4.5" cy="4.5" r="4.5"/><circle class="m" cx="4.5" cy="4.5" r="4"/></g><g class="h" transform="translate(26.122 69.28)"><circle class="k" cx="4.5" cy="4.5" r="4.5"/><circle class="m" cx="4.5" cy="4.5" r="4"/></g><g class="h" transform="translate(13.122 60.28)"><circle class="k" cx="4.5" cy="4.5" r="4.5"/><circle class="m" cx="4.5" cy="4.5" r="4"/></g><g class="h" transform="translate(0.122 52.28)"><circle class="k" cx="4.5" cy="4.5" r="4.5"/><circle class="m" cx="4.5" cy="4.5" r="4"/></g><g class="h" transform="translate(0.122 65.28)"><circle class="k" cx="4.5" cy="4.5" r="4.5"/><circle class="m" cx="4.5" cy="4.5" r="4"/></g></g><g transform="translate(0 0)"><g class="h" transform="translate(8.99 48.28) rotate(180)"><circle class="k" cx="4.5" cy="4.5" r="4.5"/><circle class="m" cx="4.5" cy="4.5" r="4"/></g><g class="h" transform="translate(8.99 61.28) rotate(180)"><circle class="k" cx="4.5" cy="4.5" r="4.5"/><circle class="m" cx="4.5" cy="4.5" r="4"/></g><g class="h" transform="translate(21.99 57.28) rotate(180)"><circle class="k" cx="4.5" cy="4.5" r="4.5"/><circle class="m" cx="4.5" cy="4.5" r="4"/></g><g class="h" transform="translate(21.99 70.28) rotate(180)"><circle class="k" cx="4.5" cy="4.5" r="4.5"/><circle class="m" cx="4.5" cy="4.5" r="4"/></g><g class="h" transform="translate(34.99 65.28) rotate(180)"><circle class="k" cx="4.5" cy="4.5" r="4.5"/><circle class="m" cx="4.5" cy="4.5" r="4"/></g><g class="h" transform="translate(34.99 78.28) rotate(180)"><circle class="k" cx="4.5" cy="4.5" r="4.5"/><circle class="m" cx="4.5" cy="4.5" r="4"/></g><g class="h" transform="translate(8.99 35.28) rotate(180)"><circle class="k" cx="4.5" cy="4.5" r="4.5"/><circle class="m" cx="4.5" cy="4.5" r="4"/></g><g class="h" transform="translate(21.99 44.28) rotate(180)"><circle class="k" cx="4.5" cy="4.5" r="4.5"/><circle class="m" cx="4.5" cy="4.5" r="4"/></g><g class="h" transform="translate(34.99 52.28) rotate(180)"><circle class="k" cx="4.5" cy="4.5" r="4.5"/><circle class="m" cx="4.5" cy="4.5" r="4"/></g><g class="h" transform="translate(8.99 22.28) rotate(180)"><circle class="k" cx="4.5" cy="4.5" r="4.5"/><circle class="m" cx="4.5" cy="4.5" r="4"/></g><g class="h" transform="translate(21.99 31.28) rotate(180)"><circle class="k" cx="4.5" cy="4.5" r="4.5"/><circle class="m" cx="4.5" cy="4.5" r="4"/></g><g class="h" transform="translate(34.99 40.28) rotate(180)"><ellipse class="k" cx="4.5" cy="5" rx="4.5" ry="5"/><ellipse class="m" cx="4.5" cy="5" rx="4" ry="4.5"/></g><g class="h" transform="translate(8.99 9.28) rotate(180)"><circle class="k" cx="4.5" cy="4.5" r="4.5"/><circle class="m" cx="4.5" cy="4.5" r="4"/></g><g class="h" transform="translate(21.99 18.28) rotate(180)"><circle class="k" cx="4.5" cy="4.5" r="4.5"/><circle class="m" cx="4.5" cy="4.5" r="4"/></g><g class="h" transform="translate(34.99 27.28) rotate(180)"><ellipse class="k" cx="4.5" cy="5" rx="4.5" ry="5"/><ellipse class="m" cx="4.5" cy="5" rx="4" ry="4.5"/></g><g class="h" transform="translate(34.99 14.28) rotate(180)"><ellipse class="k" cx="4.5" cy="5" rx="4.5" ry="5"/><ellipse class="m" cx="4.5" cy="5" rx="4" ry="4.5"/></g></g></g></g><g class="i" transform="translate(864 693)"><ellipse class="k" cx="87.5" cy="17" rx="87.5" ry="17"/><ellipse class="m" cx="87.5" cy="17" rx="87" ry="16.5"/></g><g class="j" transform="translate(865 689)"><ellipse class="k" cx="86.5" cy="17" rx="86.5" ry="17"/><ellipse class="m" cx="86.5" cy="17" rx="86" ry="16.5"/></g></g></g></svg>